<svg width="64" height="64" viewBox="0 0 64 64" fill="none" xmlns="http://www.w3.org/2000/svg">
  <!-- Clipboard background -->
  <rect x="16" y="8" width="32" height="40" rx="4" fill="#E5E7EB" stroke="#6B7280" stroke-width="2"/>
  
  <!-- Clipboard top -->
  <rect x="20" y="12" width="24" height="4" rx="2" fill="#D1D5DB"/>
  
  <!-- Document -->
  <rect x="20" y="20" width="24" height="20" rx="2" fill="#F3F4F6" stroke="#9CA3AF" stroke-width="1.5"/>
  
  <!-- Text lines -->
  <rect x="24" y="24" width="16" height="2" rx="1" fill="#4F46E5"/>
  <rect x="24" y="28" width="12" height="2" rx="1" fill="#6B7280"/>
  <rect x="24" y="32" width="14" height="2" rx="1" fill="#6B7280"/>
  <rect x="24" y="36" width="10" height="2" rx="1" fill="#6B7280"/>
  
  <!-- Copy symbol -->
  <rect x="36" y="36" width="6" height="8" rx="1" fill="#10B981" stroke="#059669" stroke-width="1"/>
  <path d="M38 38L40 38L40 40L38 40L38 38Z" fill="white"/>
  
  <!-- Selection highlight -->
  <rect x="24" y="26" width="16" height="4" fill="#4F46E5" fill-opacity="0.2" rx="1"/>
  
  <!-- Copy arrow -->
  <path d="M44 44L48 44L48 40" stroke="#10B981" stroke-width="2" stroke-linecap="round" stroke-linejoin="round"/>
  <path d="M48 40L44 44L48 48" stroke="#10B981" stroke-width="2" stroke-linecap="round" stroke-linejoin="round"/>
</svg> 