<svg width="64" height="64" viewBox="0 0 64 64" fill="none" xmlns="http://www.w3.org/2000/svg">
  <!-- Shield background -->
  <path d="M32 4L56 16V32C56 44.1503 45.2548 54 32 54C18.7452 54 8 44.1503 8 32V16L32 4Z" fill="#E5E7EB" stroke="#6B7280" stroke-width="2"/>
  
  <!-- Shield highlight -->
  <path d="M32 8L50 17V32C50 41.9411 41.9411 50 32 50C22.0589 50 14 41.9411 14 32V17L32 8Z" fill="#F3F4F6"/>
  
  <!-- Security badge -->
  <circle cx="32" cy="32" r="12" fill="#10B981" stroke="#059669" stroke-width="2"/>
  
  <!-- Checkmark -->
  <path d="M26 32L30 36L38 28" stroke="white" stroke-width="3" stroke-linecap="round" stroke-linejoin="round"/>
  
  <!-- Permission dots -->
  <circle cx="20" cy="20" r="2" fill="#4F46E5"/>
  <circle cx="44" cy="20" r="2" fill="#4F46E5"/>
  <circle cx="20" cy="44" r="2" fill="#4F46E5"/>
  <circle cx="44" cy="44" r="2" fill="#4F46E5"/>
  
  <!-- Security lines -->
  <path d="M16 16L20 20" stroke="#6B7280" stroke-width="1.5" stroke-linecap="round"/>
  <path d="M48 16L44 20" stroke="#6B7280" stroke-width="1.5" stroke-linecap="round"/>
  <path d="M16 48L20 44" stroke="#6B7280" stroke-width="1.5" stroke-linecap="round"/>
  <path d="M48 48L44 44" stroke="#6B7280" stroke-width="1.5" stroke-linecap="round"/>
</svg> 