<svg width="64" height="64" viewBox="0 0 64 64" fill="none" xmlns="http://www.w3.org/2000/svg">
  <!-- Main gear -->
  <circle cx="32" cy="32" r="20" fill="#E5E7EB" stroke="#6B7280" stroke-width="2"/>
  <circle cx="32" cy="32" r="16" fill="#F3F4F6" stroke="#9CA3AF" stroke-width="1.5"/>
  
  <!-- Gear teeth -->
  <rect x="30" y="8" width="4" height="8" rx="2" fill="#4F46E5"/>
  <rect x="30" y="48" width="4" height="8" rx="2" fill="#4F46E5"/>
  <rect x="8" y="30" width="8" height="4" rx="2" fill="#4F46E5"/>
  <rect x="48" y="30" width="8" height="4" rx="2" fill="#4F46E5"/>
  
  <!-- Diagonal teeth -->
  <rect x="12" y="12" width="4" height="8" rx="2" fill="#4F46E5" transform="rotate(45 14 16)"/>
  <rect x="48" y="12" width="4" height="8" rx="2" fill="#4F46E5" transform="rotate(-45 50 16)"/>
  <rect x="12" y="44" width="4" height="8" rx="2" fill="#4F46E5" transform="rotate(-45 14 48)"/>
  <rect x="48" y="44" width="4" height="8" rx="2" fill="#4F46E5" transform="rotate(45 50 48)"/>
  
  <!-- Center circle -->
  <circle cx="32" cy="32" r="6" fill="#4F46E5"/>
  <circle cx="32" cy="32" r="3" fill="white"/>
  
  <!-- Settings sliders -->
  <rect x="20" y="20" width="8" height="2" rx="1" fill="#10B981"/>
  <circle cx="24" cy="21" r="3" fill="#10B981" stroke="#059669" stroke-width="1"/>
  
  <rect x="36" y="42" width="8" height="2" rx="1" fill="#F59E0B"/>
  <circle cx="40" cy="43" r="3" fill="#F59E0B" stroke="#D97706" stroke-width="1"/>
  
  <!-- Notification dot -->
  <circle cx="44" cy="20" r="3" fill="#EF4444"/>
</svg> 